<svg width="24" height="24" viewBox="0 0 24 24" xmlns="http://www.w3.org/2000/svg">
<path fill="#E91E63" d="M 6.601562 16.480469 L 7.828125 20.140625 C 6.058594 20.710938 4.839844 21.078125 4.75 21.070312 C 3.96875 21.039062 3.210938 20.53125 2.949219 19.75 C 2.621094 18.730469 3.160156 17.628906 4.179688 17.289062 Z M 6.601562 16.480469 "/>
<path fill="#E91E63" d="M 15.308594 13.578125 L 16.550781 17.269531 C 14.929688 17.808594 13.179688 18.390625 11.53125 18.929688 L 10.300781 15.25 Z M 15.308594 13.578125 "/>
<path fill="#E91E63" d="M 24 13.378906 C 24 14.199219 23.488281 14.960938 22.679688 15.21875 C 22.679688 15.21875 21.71875 15.539062 20.238281 16.03125 L 19.011719 12.351562 L 21.441406 11.539062 C 22.460938 11.210938 23.570312 11.75 23.898438 12.769531 C 23.96875 12.96875 24 13.179688 24 13.378906 Z M 24 13.378906 "/>
<path fill="#00BCD4" d="M 3.75 7.96875 L 4.980469 11.628906 C 3.210938 12.199219 1.988281 12.570312 1.898438 12.558594 C 1.121094 12.53125 0.359375 12.019531 0.101562 11.238281 C -0.230469 10.21875 0.300781 9.121094 1.328125 8.78125 Z M 3.75 7.96875 "/>
<path fill="#00BCD4" d="M 12.449219 5.070312 L 13.691406 8.761719 C 12.078125 9.300781 10.328125 9.878906 8.679688 10.421875 L 7.449219 6.742188 Z M 12.449219 5.070312 "/>
<path fill="#00BCD4" d="M 19.808594 6.71875 C 19.808594 6.71875 18.859375 7.039062 17.390625 7.53125 L 16.148438 3.839844 L 18.582031 3.03125 C 19.601562 2.699219 20.710938 3.238281 21.050781 4.261719 C 21.371094 5.28125 20.839844 6.390625 19.808594 6.71875 Z M 19.808594 6.71875 "/>
<path fill="#689F38" d="M 17.390625 7.53125 C 16.359375 7.871094 15.078125 8.300781 13.691406 8.761719 L 12.449219 5.070312 L 16.148438 3.839844 Z M 17.390625 7.53125 "/>
<path fill="#FFC107" d="M 16.148438 3.839844 L 12.449219 5.070312 L 11.609375 2.558594 C 11.289062 1.527344 11.820312 0.429688 12.839844 0.0976562 C 13.871094 -0.230469 14.980469 0.308594 15.308594 1.320312 Z M 16.148438 3.839844 "/>
<path fill="#B71C1C" d="M 20.238281 16.027344 C 19.210938 16.378906 17.929688 16.808594 16.550781 17.269531 L 15.308594 13.578125 L 19.011719 12.347656 Z M 20.238281 16.027344 "/>
<path fill="#FFC107" d="M 19.011719 12.351562 L 15.308594 13.582031 L 13.691406 8.761719 C 15.078125 8.300781 16.359375 7.871094 17.390625 7.53125 Z M 19.011719 12.351562 "/>
<path fill="#FFC107" d="M 19.851562 21 C 18.710938 21.332031 17.710938 20.679688 17.390625 19.78125 L 16.550781 17.269531 C 17.929688 16.808594 19.210938 16.378906 20.238281 16.03125 L 21.078125 18.539062 C 21.410156 19.570312 20.878906 20.671875 19.851562 21 Z M 19.851562 21 "/>
<path fill="#009688" d="M 8.679688 10.417969 C 7.328125 10.859375 6.050781 11.28125 4.980469 11.628906 L 3.75 7.96875 L 7.449219 6.738281 Z M 8.679688 10.417969 "/>
<path fill="#4CAF50" d="M 7.449219 6.738281 L 3.75 7.96875 L 2.910156 5.460938 C 2.589844 4.441406 3.121094 3.328125 4.140625 3 C 5.171875 2.667969 6.28125 3.210938 6.609375 4.230469 Z M 7.449219 6.738281 "/>
<path fill="#880E4F" d="M 11.53125 18.929688 C 10.179688 19.371094 8.910156 19.789062 7.828125 20.140625 L 6.601562 16.480469 L 10.300781 15.25 Z M 11.53125 18.929688 "/>
<path fill="#4CAF50"  d="M 10.300781 15.25 L 6.601562 16.480469 L 4.980469 11.628906 C 6.050781 11.28125 7.328125 10.859375 8.679688 10.421875 Z M 10.300781 15.25 "/>
<path fill="#4CAF50" d="M 11.140625 23.910156 C 10 24.238281 9 23.589844 8.679688 22.6875 L 7.828125 20.140625 C 8.910156 19.789062 10.179688 19.371094 11.53125 18.929688 L 12.371094 21.449219 C 12.699219 22.480469 12.167969 23.578125 11.140625 23.910156 Z M 11.140625 23.910156 "/>
</svg>
