<svg width="100" height="100" viewBox="0 0 100 100" xmlns="http://www.w3.org/2000/svg">
  <defs>
    <linearGradient id="c">
      <stop offset="0%" stop-color="#17174c"/>
      <stop offset="100%" stop-color="#a6a6ff"/>
    </linearGradient>
    <linearGradient id="b">
      <stop offset="0%" stop-color="#17174c"/>
      <stop offset="25%" stop-color="#17174c"/>
      <stop offset="100%" stop-color="#a6a6ff"/>
    </linearGradient>
    <linearGradient id="a">
      <stop offset="0%" stop-color="#a6a6ff"/>
      <stop offset="50%" stop-color="#17174c"/>
    </linearGradient>
    <mask id="d">
      <circle cx="50" cy="50" r="50" fill="#fff"/>
      <circle cx="20" cy="20" r="30"/>
      <circle cx="20" cy="80" r="30"/>
      <circle cx="80" cy="20" r="30"/>
      <circle cx="80" cy="80" r="30"/>
    </mask>
  </defs>
  <circle cx="25" cy="25" r="25" fill="url(#a)" transform="rotate(45 25 25)"/>
  <circle cx="25" cy="75" r="25" fill="url(#a)" transform="rotate(315 25 75)"/>
  <circle cx="75" cy="25" r="25" fill="url(#a)" transform="rotate(135 75 25)"/>
  <circle cx="75" cy="75" r="25" fill="url(#a)" transform="rotate(225 75 75)"/>
  <circle cx="50" cy="25" r="25" fill="url(#b)" transform="rotate(270 50 25)"/>
  <circle cx="50" cy="75" r="25" fill="url(#b)" transform="rotate(90 50 75)"/>
  <circle cx="25" cy="50" r="25" fill="url(#c)" transform="rotate(180 25 50)"/>
  <circle cx="75" cy="50" r="25" fill="url(#c)"/>
  <circle cx="50" cy="50" r="30" fill="#cacaff" mask="url(#d)"/>
</svg>
